Coordinates
version=1
nRows=6
nColumns=34
inDegrees=yes

Units are S.I. units (second, meters, Newtons, ...)
If the header above contains a line with 'inDegrees', this indicates whether rotational values are in degrees (yes) or radians (no).

endheader
time	pelvis_tilt	pelvis_list	pelvis_rotation	pelvis_tx	pelvis_ty	pelvis_tz	hip_flexion_r	hip_adduction_r	hip_rotation_r	knee_angle_r	ankle_angle_r	subtalar_angle_r	mtp_angle_r	hip_flexion_l	hip_adduction_l	hip_rotation_l	knee_angle_l	ankle_angle_l	subtalar_angle_l	mtp_angle_l	lumbar_extension	lumbar_bending	lumbar_rotation	arm_flex_r	arm_add_r	arm_rot_r	elbow_flex_r	pro_sup_r	arm_flex_l	arm_add_l	arm_rot_l	elbow_flex_l	pro_sup_l
      3.80000000	     -7.35070890	     -1.40301632	     -0.70278370	      1.86652430	      1.01741581	     -0.01257537	      2.69468246	     -6.00262975	     -9.14358717	     18.08165713	    -19.40171756	     -6.86493291	      0.00000000	      0.34879201	     -6.50310958	      2.65399079	      8.38705864	    -15.41399896	     -5.23604819	      0.00000000	     -1.23020743	     -2.77544718	     -0.87630838	    105.78508442	    -19.05902101	     37.68995206	     73.75541007	     87.29187125	     79.63051668	      1.16417555	     44.27677505	    106.29531513	     96.87947247
      3.81666670	     -7.24189043	     -1.67251943	     -0.76643009	      1.87215400	      1.01451756	     -0.01388389	      4.71497525	     -6.45614556	     -9.40572783	     22.65610334	    -18.94179776	     -7.47371353	      0.00000000	     -0.23546451	     -6.74049293	      2.77229795	      8.60992375	    -14.13323062	     -5.09100473	      0.00000000	     -1.43747545	     -2.58919445	     -1.50217645	     98.63296712	    -19.96481187	     35.04310815	     77.26625778	     88.23602627	     76.43956583	      0.74000280	     46.59012872	    105.83094757	     96.16985250
      3.83333330	     -7.29112050	     -1.81755633	     -0.87046685	      1.87819356	      1.01177679	     -0.01463162	      7.48775456	     -7.24309064	     -9.80948267	     28.13561875	    -18.89849227	     -7.83572708	      0.00000000	     -0.65210580	     -6.87690945	      2.86567358	      8.92026226	    -12.64458671	     -4.78125705	      0.00000000	     -1.38716160	     -2.17097316	     -2.08226539	     91.36607167	    -20.74347649	     34.15357998	     80.28969415	     88.66501952	     72.41814505	     -0.73979571	     49.09050829	    106.33688398	     95.63301142
      3.85000000	     -7.15082109	     -1.90879018	     -0.89882648	      1.88496295	      1.00886815	     -0.01473640	     10.40795679	     -8.19199864	    -10.33258091	     34.09594005	    -18.81219775	     -8.71454557	      0.00000000	     -1.41129566	     -7.02409693	      2.86697020	      9.04066488	    -11.17579828	     -4.08768690	      0.00000000	     -1.51334082	     -2.02010980	     -2.48617276	     82.62385843	    -21.92338298	     31.87068581	     83.73213876	     88.93442969	     68.46805978	     -2.08923750	     51.83145110	    105.82357375	     94.43582040
      3.86666670	     -7.08259875	     -1.94200047	     -0.91547614	      1.89264145	      1.00580561	     -0.01442869	     13.60051112	     -9.30429619	    -10.91896580	     40.06748758	    -18.16914262	     -9.37243709	      0.00000000	     -2.24916261	     -7.12711274	      2.94876642	      8.97654097	     -9.55029982	     -3.41911807	      0.00000000	     -1.61730073	     -1.65534221	     -3.06780893	     74.20020891	    -22.67385782	     30.83422573	     86.49470804	     88.84071291	     64.57802032	     -3.58177446	     54.85734114	    105.61673357	     93.21276284
      3.88333330	     -6.89672235	     -2.01598186	     -0.82627163	      1.90055915	      1.00294164	     -0.01368770	     16.52583631	    -10.28960332	    -11.49316388	     45.18740960	    -16.48355154	     -9.72527746	      0.00000000	     -3.45464163	     -7.34790317	      3.13123439	      8.47299129	     -8.15328460	     -2.62462100	      0.00000000	     -1.98490880	     -1.47882968	     -3.62001622	     65.55616397	    -22.92011225	     28.80012433	     88.68812153	     88.28967793	     61.47449849	     -4.22132157	     58.13890092	    104.48233124	     91.20979102
